<svg xmlns="http://www.w3.org/2000/svg" width="1200" height="800" viewBox="0 0 1200 800" role="img" aria-labelledby="title desc"><title id="title">Swahili Coast checkpoint module card</title><desc id="desc">BeHistorical local module card artwork for Topic 1.5</desc><defs><linearGradient id="g" x1="0" y1="0" x2="1" y2="1"><stop stop-color="#1A1C1D"/><stop offset="1" stop-color="#2B2F31"/></linearGradient></defs><rect width="1200" height="800" fill="url(#g)"/><path d="M0 570 C160 520 250 610 420 560 C590 510 700 585 890 520 C1030 470 1110 490 1200 440 L1200 800 L0 800 Z" fill="#151718" opacity=".58"/><path d="M230 485h500l-90 105H140z" fill="#D2B48C" opacity=".82"/><rect x="340" y="335" width="35" height="165" fill="#F5F0E7"/><path d="M378 342 l250 90 -250 90z" fill="#C9A46A" opacity=".88"/><path d="M780 430h210v150H780zM820 370h130v210h-130z" fill="#D2B48C" opacity=".7"/><circle cx="1015" cy="160" r="88" fill="#C9A46A" opacity=".45"/><text x="76" y="112" fill="#C9A46A" font-family="Georgia,serif" font-size="46" font-weight="700">Checkpoint</text><text x="76" y="185" fill="#FFFDF7" font-family="Georgia,serif" font-size="72" font-weight="700">Swahili Coast</text><text x="80" y="250" fill="#F5F0E7" font-family="Arial,sans-serif" font-size="30" letter-spacing="2">PORTS • ISLAM • TRADE</text></svg>