<svg xmlns="http://www.w3.org/2000/svg" width="1200" height="800" viewBox="0 0 1200 800" role="img" aria-labelledby="title desc"><title id="title">Zimbabwe Bird evidence module card</title><desc id="desc">BeHistorical local module card artwork for Topic 1.5</desc><defs><linearGradient id="g" x1="0" y1="0" x2="1" y2="1"><stop stop-color="#2B2F31"/><stop offset="1" stop-color="#5A5F5C"/></linearGradient></defs><rect width="1200" height="800" fill="url(#g)"/><circle cx="930" cy="145" r="100" fill="#C9A46A" opacity=".45"/><path d="M360 550 C410 415 495 365 600 390 C705 415 770 500 850 505 C760 555 655 555 565 515 C510 560 440 585 360 550Z" fill="#D2B48C" opacity=".9"/><path d="M610 382 C650 300 720 275 800 315 C735 345 690 375 670 430Z" fill="#C9A46A" opacity=".85"/><rect x="548" y="510" width="80" height="150" fill="#D2B48C" opacity=".82"/><path d="M475 665h230" stroke="#151718" stroke-width="24" opacity=".45"/><text x="76" y="112" fill="#C9A46A" font-family="Georgia,serif" font-size="46" font-weight="700">Evidence Lab</text><text x="76" y="185" fill="#FFFDF7" font-family="Georgia,serif" font-size="72" font-weight="700">Zimbabwe Bird</text><text x="80" y="250" fill="#F5F0E7" font-family="Arial,sans-serif" font-size="30" letter-spacing="2">SYMBOL • POWER • SOURCE</text></svg>