<svg xmlns="http://www.w3.org/2000/svg" width="1200" height="800" viewBox="0 0 1200 800" role="img" aria-labelledby="title desc"><title id="title">Timbuktu scholarship module card</title><desc id="desc">BeHistorical local module card artwork for Topic 1.5</desc><defs><linearGradient id="g" x1="0" y1="0" x2="1" y2="1"><stop stop-color="#1A1C1D"/><stop offset=".6" stop-color="#3E4447"/><stop offset="1" stop-color="#8C5A2B"/></linearGradient></defs><rect width="1200" height="800" fill="url(#g)"/><rect x="185" y="430" width="830" height="120" rx="18" fill="#D2B48C" opacity=".82"/><rect x="245" y="350" width="180" height="210" fill="#C9A46A" opacity=".72"/><rect x="510" y="300" width="180" height="260" fill="#D2B48C" opacity=".82"/><rect x="775" y="365" width="180" height="195" fill="#C9A46A" opacity=".72"/><path d="M240 350l95-82 95 82M505 300l95-92 95 92M770 365l95-72 95 72" fill="none" stroke="#F5F0E7" stroke-width="14" opacity=".8"/><path d="M0 650 C150 570 300 610 480 565 C700 510 850 590 1200 500 L1200 800 L0 800 Z" fill="#151718" opacity=".52"/><text x="78" y="112" fill="#C9A46A" font-family="Georgia,serif" font-size="46" font-weight="700">Timbuktu</text><text x="78" y="185" fill="#FFFDF7" font-family="Georgia,serif" font-size="72" font-weight="700">Learning</text><text x="82" y="250" fill="#F5F0E7" font-family="Arial,sans-serif" font-size="30" letter-spacing="2">SCHOLARS • BOOKS • ISLAM</text></svg>