<svg xmlns="http://www.w3.org/2000/svg" width="1200" height="800" viewBox="0 0 1200 800" role="img" aria-labelledby="title desc"><title id="title">Djenne and Islam module card</title><desc id="desc">BeHistorical local module card artwork for Topic 1.5</desc><defs><linearGradient id="g" x1="0" y1="0" x2="1" y2="1"><stop stop-color="#2B2F31"/><stop offset="1" stop-color="#6B3E1F"/></linearGradient></defs><rect width="1200" height="800" fill="url(#g)"/><path d="M0 640 C180 560 330 600 500 548 C680 493 800 560 1000 496 C1100 462 1162 470 1200 438 L1200 800 L0 800 Z" fill="#151718" opacity="0.45"/><g fill="#D2B48C" opacity="0.9"><rect x="255" y="390" width="690" height="210" rx="8"/><rect x="330" y="330" width="90" height="270"/><rect x="555" y="285" width="100" height="315"/><rect x="790" y="340" width="90" height="260"/><circle cx="375" cy="328" r="38"/><circle cx="605" cy="282" r="44"/><circle cx="835" cy="338" r="36"/></g><g stroke="#1A1C1D" stroke-width="10" opacity="0.45"><path d="M265 430h665M265 490h665M265 550h665"/></g><text x="80" y="115" fill="#C9A46A" font-family="Georgia,serif" font-size="46" font-weight="700">West Africa</text><text x="80" y="185" fill="#FFFDF7" font-family="Georgia,serif" font-size="72" font-weight="700">Djenne</text><text x="84" y="250" fill="#F5F0E7" font-family="Arial,sans-serif" font-size="30" letter-spacing="2">ISLAM • TRADE • URBAN LIFE</text></svg>