<svg xmlns="http://www.w3.org/2000/svg" viewBox="0 0 1200 800" role="img" aria-labelledby="title desc"><title id="title">Scholarship primary source module card</title><desc id="desc">BeHistorical local module card artwork for Topic 1.5</desc><defs><linearGradient id="g" x1="0" y1="0" x2="1" y2="1"><stop stop-color="#1A1C1D"/><stop offset="1" stop-color="#3E4447"/></linearGradient></defs><rect width="1200" height="800" fill="url(#g)"/><path d="M300 450 C440 390 530 390 600 450 C670 390 760 390 900 450 L900 620 C760 560 670 560 600 620 C530 560 440 560 300 620Z" fill="#D2B48C" opacity=".88"/><path d="M600 452v165" stroke="#1A1C1D" stroke-width="12" opacity=".35"/><g stroke="#1A1C1D" stroke-width="7" opacity=".35"><path d="M350 475h190M350 515h190M350 555h190M660 475h190M660 515h190M660 555h190"/></g><circle cx="940" cy="155" r="92" fill="#C9A46A" opacity=".45"/><text x="76" y="112" fill="#C9A46A" font-family="Georgia,serif" font-size="46" font-weight="700">Primary Source</text><text x="76" y="185" fill="#FFFDF7" font-family="Georgia,serif" font-size="72" font-weight="700">Trade &amp; Reputation</text><text x="80" y="250" fill="#F5F0E7" font-family="Arial,sans-serif" font-size="30" letter-spacing="2">BOOKS • MAPS • MEMORY</text></svg>