<svg xmlns="http://www.w3.org/2000/svg" viewBox="0 0 1200 800" role="img" aria-labelledby="title desc"><title id="title">Mali trade checkpoint module card</title><desc id="desc">BeHistorical local module card artwork for Topic 1.5</desc><defs><linearGradient id="g" x1="0" y1="0" x2="1" y2="1"><stop stop-color="#1A1C1D"/><stop offset="1" stop-color="#6B3E1F"/></linearGradient></defs><rect width="1200" height="800" fill="url(#g)"/><path d="M0 635 C160 560 300 610 460 560 C620 510 760 570 920 515 C1040 470 1130 480 1200 430 L1200 800 L0 800 Z" fill="#151718" opacity=".55"/><g fill="#D2B48C" opacity=".9"><circle cx="270" cy="480" r="44"/><circle cx="378" cy="480" r="44"/><circle cx="486" cy="480" r="44"/><path d="M225 480h310l70 70H180z"/><path d="M170 545h465v45H170z"/></g><path d="M650 440 C760 370 835 380 930 430" fill="none" stroke="#C9A46A" stroke-width="18" stroke-linecap="round"/><circle cx="965" cy="455" r="38" fill="#C9A46A"/><text x="76" y="112" fill="#C9A46A" font-family="Georgia,serif" font-size="46" font-weight="700">Checkpoint</text><text x="76" y="185" fill="#FFFDF7" font-family="Georgia,serif" font-size="72" font-weight="700">Mali Trade</text><text x="80" y="250" fill="#F5F0E7" font-family="Arial,sans-serif" font-size="30" letter-spacing="2">GOLD • SALT • CARAVANS</text></svg>