<svg xmlns="http://www.w3.org/2000/svg" viewBox="0 0 1200 800" role="img" aria-labelledby="title desc"><title id="title">Great Zimbabwe module card</title><desc id="desc">BeHistorical local module card artwork for Topic 1.5</desc><defs><linearGradient id="g" x1="0" y1="0" x2="1" y2="1"><stop stop-color="#1A1C1D"/><stop offset="1" stop-color="#5A5F5C"/></linearGradient></defs><rect width="1200" height="800" fill="url(#g)"/><circle cx="920" cy="145" r="115" fill="#C9A46A" opacity=".55"/><path d="M190 610 C260 430 380 360 520 395 C650 425 700 540 820 520 C930 505 980 430 1080 390 L1080 660 L190 660 Z" fill="#D2B48C" opacity=".75"/><path d="M250 610 C350 485 470 465 610 510 C735 550 835 565 1010 490 L1010 655 L250 655 Z" fill="#151718" opacity=".35"/><g stroke="#1A1C1D" stroke-width="10" opacity=".4"><path d="M280 580h700M330 535h650M405 490h520M500 445h310"/></g><text x="76" y="110" fill="#C9A46A" font-family="Georgia,serif" font-size="46" font-weight="700">Southern Africa</text><text x="76" y="185" fill="#FFFDF7" font-family="Georgia,serif" font-size="70" font-weight="700">Great Zimbabwe</text><text x="80" y="250" fill="#F5F0E7" font-family="Arial,sans-serif" font-size="30" letter-spacing="2">STONE • TRADE • AUTHORITY</text></svg>