<svg xmlns="http://www.w3.org/2000/svg" width="1200" height="800" viewBox="0 0 1200 800" role="img" aria-labelledby="title desc"><title id="title">Indian Ocean trade module card</title><desc id="desc">BeHistorical local module card artwork for Topic 1.5</desc><defs><linearGradient id="g" x1="0" y1="0" x2="1" y2="1"><stop stop-color="#1A1C1D"/><stop offset="1" stop-color="#2B2F31"/></linearGradient></defs><rect width="1200" height="800" fill="url(#g)"/><path d="M90 520 C250 400 420 620 590 455 C760 290 910 500 1110 350" fill="none" stroke="#C9A46A" stroke-width="16" stroke-linecap="round" opacity=".9"/><path d="M170 600 C330 515 520 690 730 560 C900 455 990 520 1135 455" fill="none" stroke="#D2B48C" stroke-width="10" stroke-linecap="round" opacity=".75"/><g fill="#F5F0E7" opacity=".9"><path d="M430 380 l110 40 -110 40 -110-40z"/><rect x="417" y="320" width="26" height="110"/><path d="M443 323 l150 56 -150 56z" opacity=".8"/></g><circle cx="1020" cy="155" r="90" fill="#C9A46A" opacity=".55"/><text x="76" y="112" fill="#C9A46A" font-family="Georgia,serif" font-size="46" font-weight="700">East Africa</text><text x="76" y="185" fill="#FFFDF7" font-family="Georgia,serif" font-size="72" font-weight="700">Indian Ocean</text><text x="80" y="250" fill="#F5F0E7" font-family="Arial,sans-serif" font-size="30" letter-spacing="2">MONSOONS • PORTS • EXCHANGE</text></svg>